<svg xmlns="http://www.w3.org/2000/svg" width="20" height="20"><defs><linearGradient id="a" gradientUnits="userSpaceOnUse" x1="-0.008" y1="0.077" x2="0.576" y2="0.784" gradientTransform="matrix(19.58203 0 0 17.23828 .21 2.313)"><stop offset="0" style="stop-color:#41d1ff;stop-opacity:1"></stop><stop offset="1" style="stop-color:#bd34fe;stop-opacity:1"></stop></linearGradient><linearGradient id="b" gradientUnits="userSpaceOnUse" x1="0.434" y1="0.022" x2="0.503" y2="0.89" gradientTransform="matrix(9.01172 0 0 16.29297 6.945 .148)"><stop offset="0" style="stop-color:#ffea83;stop-opacity:1"></stop><stop offset="0.083" style="stop-color:#ffdd35;stop-opacity:1"></stop><stop offset="1" style="stop-color:#ffa800;stop-opacity:1"></stop></linearGradient></defs><path style="stroke:none;fill-rule:nonzero;fill:url(#a)" d="m19.793 3.055-9.262 16.492a.504.504 0 0 1-.875.004L.211 3.055a.502.502 0 0 1 .527-.743l9.27 1.653a.555.555 0 0 0 .18-.004l9.074-1.645a.503.503 0 0 1 .531.739Zm0 0"></path><path style="stroke:none;fill-rule:nonzero;fill:url(#b)" d="M14.422.148 7.57 1.484a.253.253 0 0 0-.203.23L6.945 8.81a.25.25 0 0 0 .09.207c.059.05.14.07.219.05L9.16 8.63a.25.25 0 0 1 .305.293l-.567 2.765a.25.25 0 0 0 .32.29l1.177-.356a.251.251 0 0 1 .32.29l-.899 4.343c-.058.273.305.418.457.187l.102-.156 5.582-11.101a.25.25 0 0 0-.273-.356l-1.961.375a.247.247 0 0 1-.29-.312L14.716.465a.252.252 0 0 0-.293-.317Zm0 0"></path></svg>