<svg xmlns="http://www.w3.org/2000/svg" width="20" height="20"><path style="stroke:none;fill-rule:nonzero;fill:#fff;fill-opacity:1" d="m10 0 8.84 5v10L10 20l-8.84-5V5Zm0 0"></path><path style="stroke:none;fill-rule:nonzero;fill:#8ed6fb;fill-opacity:1" d="m17.262 14.656-6.969 3.942v-3.07l4.34-2.391Zm.476-.433V5.98l-2.55 1.473v5.297Zm-15.027.433 6.969 3.942v-3.07l-4.34-2.391Zm-.477-.433V5.98l2.551 1.473v5.297Zm.301-8.778L9.68 1.402v2.97L5.102 6.89l-.036.02Zm14.902 0-7.144-4.043v2.97l4.578 2.519.035.02Zm0 0"></path><path style="stroke:none;fill-rule:nonzero;fill:#1c78c0;fill-opacity:1" d="m9.68 14.828-4.282-2.355V7.809L9.68 10.28Zm.613 0 4.281-2.355V7.809l-4.281 2.472Zm-.305-4.726Zm-4.3-2.836 4.3-2.364 4.297 2.364L9.988 9.75Zm0 0"></path></svg>