<svg xmlns="http://www.w3.org/2000/svg" width="20px" height="20px" viewBox="0 0 20 20" version="1.1" class="text-black dark:text-white"><g id="surface1"><path fill="currentColor" d="M 1.421875 10 C 1.421875 13.394531 3.394531 16.328125 6.257812 17.71875 L 2.164062 6.507812 C 1.6875 7.574219 1.421875 8.757812 1.421875 10 Z M 1.421875 10 "></path><path fill="currentColor" d="M 15.792969 9.566406 C 15.792969 8.507812 15.410156 7.773438 15.085938 7.199219 C 14.648438 6.496094 14.242188 5.894531 14.242188 5.1875 C 14.242188 4.402344 14.839844 3.667969 15.683594 3.667969 C 15.71875 3.667969 15.757812 3.671875 15.792969 3.671875 C 14.265625 2.273438 12.234375 1.421875 10 1.421875 C 7.003906 1.421875 4.367188 2.960938 2.832031 5.289062 C 3.035156 5.292969 3.222656 5.296875 3.382812 5.296875 C 4.28125 5.296875 5.671875 5.191406 5.671875 5.191406 C 6.132812 5.164062 6.1875 5.839844 5.726562 5.894531 C 5.726562 5.894531 5.261719 5.949219 4.746094 5.976562 L 7.867188 15.269531 L 9.746094 9.640625 L 8.410156 5.976562 C 7.945312 5.949219 7.507812 5.894531 7.507812 5.894531 C 7.046875 5.867188 7.101562 5.160156 7.5625 5.1875 C 7.5625 5.1875 8.980469 5.296875 9.824219 5.296875 C 10.71875 5.296875 12.109375 5.1875 12.109375 5.1875 C 12.570312 5.160156 12.625 5.839844 12.164062 5.894531 C 12.164062 5.894531 11.699219 5.949219 11.183594 5.976562 L 14.28125 15.199219 L 15.136719 12.339844 C 15.507812 11.152344 15.792969 10.300781 15.792969 9.566406 Z M 15.792969 9.566406 "></path><path fill="currentColor" d="M 10.152344 10.75 L 7.578125 18.230469 C 8.34375 18.457031 9.15625 18.578125 10 18.578125 C 11 18.578125 11.957031 18.40625 12.847656 18.09375 C 12.824219 18.054688 12.804688 18.015625 12.789062 17.972656 Z M 10.152344 10.75 "></path><path fill="currentColor" d="M 17.527344 5.882812 C 17.566406 6.15625 17.585938 6.449219 17.585938 6.765625 C 17.585938 7.636719 17.421875 8.613281 16.933594 9.839844 L 14.3125 17.414062 C 16.863281 15.929688 18.578125 13.164062 18.578125 10 C 18.578125 8.507812 18.199219 7.105469 17.527344 5.882812 Z M 17.527344 5.882812 "></path><path fill="currentColor" d="M 10 0 C 4.488281 0 0 4.484375 0 10 C 0 15.515625 4.488281 20 10 20 C 15.515625 20 20 15.515625 20 10 C 20 4.484375 15.515625 0 10 0 Z M 10 19.542969 C 4.738281 19.542969 0.457031 15.261719 0.457031 10 C 0.457031 4.738281 4.738281 0.457031 10 0.457031 C 15.261719 0.457031 19.542969 4.738281 19.542969 10 C 19.542969 15.261719 15.261719 19.542969 10 19.542969 Z M 10 19.542969 "></path></g></svg>